<svg xmlns="http://www.w3.org/2000/svg" xml:space="preserve" width="2000" height="387" data-id="lg_NYRrjADONE5KxizwoL" data-version="1" viewBox="0 0 2000 387"><g data-padding="20"><g transform="translate(10 6.047)scale(.96875)"><rect width="551" height="228.26" x="301.147" y="-325.11" fill="none" rx="0" ry="0" transform="translate(489.96 413.65)"/><path d="M816.807 266.21V128.45h84.44V144h-67.47v44.04h62.62v15.15h-62.62v63.02Zm106.05 0V164.4l16.16-1.82v103.63Zm-2.62-130.69q0-4.65 3.13-7.78t7.77-3.13q4.85 0 8.18 3.13 3.34 3.13 3.34 7.78 0 4.64-3.34 7.77-3.33 3.13-8.18 3.13-4.64 0-7.77-3.13t-3.13-7.77m48.07 130.68v-81.41q.2-4.24-1.01-18.38l14.95-2.02 2.22 12.93q6.06-4.04 12.02-7.07t12.22-5.35q6.26-2.33 12.12-2.33 8.28 0 13.84 1.92 5.55 1.92 8.99 6.37 3.43 4.44 4.95 11.71 1.51 7.27 1.51 18.18v65.45h-16.16v-63.63q0-6.06-.2-10.81-.2-4.74-1.72-8.08-1.51-3.33-4.64-5.15t-8.79-1.82q-5.25 0-11.11 2.33-5.86 2.32-11.51 5.35-5.66 3.03-11.52 7.07v74.74Zm110.29.01v-151.3l16.16-1.82v153.12Zm56.78-50.3q0 19.6 8.78 29.19 8.79 9.6 23.74 9.6 14.74 0 23.03-9.5 8.28-9.49 8.28-28.48 0-20.2-8.79-30.1t-23.94-9.9-23.13 9.8q-7.97 9.8-7.97 29.39m-17.17-.2q0-15.35 4.84-25.55 4.85-10.2 12.33-16.36 7.47-6.17 16.05-8.69 8.59-2.53 16.27-2.53 7.27 0 15.85 2.33 8.59 2.32 15.86 8.28t12.12 15.96 4.85 25.35q0 15.96-4.95 26.46t-12.42 16.67q-7.48 6.16-16.16 8.68-8.69 2.53-16.16 2.53-7.68 0-16.16-2.43-8.49-2.42-15.66-8.38t-11.92-16.26q-4.74-10.3-4.74-26.06m201.18-48.68v108.88q0 7.47-1.62 14.54-1.61 7.07-6.16 12.63-4.54 5.55-12.73 8.88-8.18 3.34-21.51 3.34-8.48-.21-14.74-1.01-6.27-.81-11.92-2.33-5.66-1.51-10.3-3.53l4.24-14.14q7.88 3.43 16.06 5.25t14.64 1.82q7.07 0 12.32-1.42 5.26-1.41 8.79-4.74 3.54-3.34 5.25-8.79 1.72-5.45 1.72-13.53v-14.75q-4.24 2.83-8.79 5.15-4.54 2.32-9.69 3.94t-10 1.62q-18.79 0-29.7-13.23-10.9-13.24-10.9-39.5 0-15.15 4.74-25.35 4.75-10.2 12.02-16.46t15.96-8.99 16.56-2.73q10.31 0 18.89 1.72 8.59 1.72 16.87 2.73m-42.62 87.67q4.44 0 9.09-1.62 4.64-1.62 8.98-3.84 4.35-2.22 8.59-5.25v-64.44q-2.42-.6-5.66-1.41-2.82-.41-6.46-.91-3.64-.51-7.68-.51-8.48 0-14.54 3.03t-10 8.29q-3.94 5.25-5.76 12.32-1.81 7.07-1.81 14.95 0 7.07 1.51 14.14 1.52 7.07 4.75 12.72 3.23 5.66 7.88 9.09 4.64 3.44 11.11 3.44"/><path stroke="#000" stroke-width="8.925" d="M1088.69 75.68V.039H701.764v386.924h386.926v-75.64h-6.3v69.342H708.064V6.337h374.324V75.68Z" paint-order="stroke"/></g><path fill="transparent" stroke="transparent" d="M680 0h640v387H680z"/></g></svg>